<svg width="1230" height="1255" viewBox="0 0 1230 1255" fill="none" xmlns="http://www.w3.org/2000/svg">
<path d="M40 526.111C40 906.573 348.426 1215 728.889 1215C746.053 1215 763.071 1214.37 779.924 1213.14C799.262 1211.72 808.929 1211.01 817.733 1205.95C825.022 1201.75 831.933 1194.31 835.587 1186.73C840 1177.59 840 1166.92 840 1145.58V1020.36C840 1002.42 840 993.444 837.044 985.756C834.44 978.96 830.2 972.911 824.707 968.138C818.489 962.733 810.053 959.667 793.191 953.533L650.667 901.707C631.044 894.573 621.231 891.004 611.924 891.609C603.716 892.142 595.818 894.947 589.107 899.702C581.498 905.093 576.129 914.044 565.387 931.951L528.889 992.778C411.116 939.44 315.64 843.84 262.222 726.111L323.05 689.614C340.953 678.872 349.905 673.501 355.298 665.892C360.053 659.181 362.858 651.283 363.391 643.076C363.996 633.768 360.427 623.957 353.293 604.336L301.466 461.809C295.333 444.945 292.267 436.512 286.863 430.293C282.089 424.8 276.04 420.562 269.245 417.953C261.554 415 252.581 415 234.636 415H109.423C88.0835 415 77.4138 415 68.2658 419.411C60.6889 423.065 53.2507 429.978 49.0533 437.268C43.9858 446.07 43.2778 455.739 41.8618 475.077C40.628 491.927 40 508.946 40 526.111Z" stroke="black" stroke-width="80" stroke-linecap="round" stroke-linejoin="round"/>
<path d="M648.171 352.5H981.504M648.171 519.167H773.171M1190 415C1190 622.108 1022.11 790 815 790C730.15 790 440.03 790 440.03 790C440.03 790 504.996 634.004 478.996 581.7C454.035 531.483 440 474.883 440 415C440 207.893 607.893 40 815 40C1022.11 40 1190 207.893 1190 415Z" stroke="black" stroke-width="80" stroke-linecap="round" stroke-linejoin="round"/>
</svg>
