<svg width="56" height="56" viewBox="0 0 56 56" fill="none" xmlns="http://www.w3.org/2000/svg">
<circle cx="28" cy="28" r="27.5" stroke="#772E23"/>
<path d="M23.8184 29.8146C23.8184 30.7379 24.1054 31.5945 24.5931 32.3025C24.8681 32.0421 25.171 32.1422 25.4969 31.9449C25.154 31.4286 24.9531 30.4799 24.9531 29.8146C24.9531 28.0137 26.418 26.5485 28.2192 26.5485C30.02 26.5485 31.4849 28.0137 31.4849 29.8146C31.4849 30.4797 31.284 31.4286 30.9416 31.9449C31.267 32.1422 31.5704 32.0421 31.8452 32.3025C32.3326 31.5945 32.6199 30.7374 32.6199 29.8146C32.6199 28.1102 31.6436 26.632 30.2225 25.9012L31.6978 24.112L28.2192 22.0055L24.7404 24.112L26.227 25.8957C24.7997 26.6241 23.8184 28.1056 23.8184 29.8146ZM29.0746 25.1716C29.2085 24.9813 29.408 24.7494 29.6259 24.5368C29.8457 24.3266 30.085 24.1358 30.2796 24.0086C30.4721 23.8799 30.6219 23.8158 30.6219 23.8158C30.6219 23.8158 30.5525 23.9627 30.4169 24.1506C30.2828 24.341 30.084 24.573 29.8656 24.7854C29.646 24.9964 29.4075 25.1872 29.2121 25.3142C29.0192 25.4433 28.8696 25.5071 28.8696 25.5071C28.8696 25.5071 28.9388 25.3593 29.0746 25.1716ZM28.1199 23.3846C28.1604 23.2211 28.2185 23.1122 28.2185 23.1122C28.2185 23.1122 28.2761 23.2211 28.3174 23.3846C28.3608 23.5478 28.3899 23.7657 28.3911 23.9829C28.3901 24.201 28.3613 24.4185 28.3179 24.5814C28.2766 24.7454 28.2185 24.8536 28.2185 24.8536C28.2185 24.8536 28.1604 24.7454 28.1192 24.5814C28.0755 24.4185 28.0469 24.201 28.0455 23.9829C28.0472 23.7654 28.0762 23.5475 28.1199 23.3846ZM26.0211 24.1506C25.8855 23.963 25.8161 23.8158 25.8161 23.8158C25.8161 23.8158 25.9659 23.8799 26.1581 24.0086C26.353 24.1358 26.5923 24.3266 26.8119 24.5368C27.03 24.7494 27.2297 24.9813 27.3634 25.1716C27.499 25.3593 27.5681 25.5069 27.5681 25.5069C27.5681 25.5069 27.4188 25.443 27.2256 25.3139C27.031 25.187 26.7922 24.9962 26.5726 24.7852C26.3537 24.573 26.1548 24.341 26.0211 24.1506Z" fill="#772E23"/>
<path d="M34.5012 28.606L38.1079 19.2486L35.3681 16H20.9705L18.2304 19.2486L22.1719 28.606L18.0014 33.8327H18V37.4118L20.6419 40H35.37L38.0119 37.4118V33.8327L38.005 33.8255L34.5012 28.606ZM20.7401 33.0914L23.3803 28.7714H24.4049C24.4572 28.1229 24.6758 28.5117 25.0219 28.0019H23.2709L20.2608 19.3917L21.8114 17.4314H34.747L36.2974 19.3917L33.3646 28.0019H31.086C31.4326 28.5117 31.6512 28.1229 31.7033 28.7714H33.1042L35.5466 33.0914H20.7401Z" fill="#772E23"/>
</svg>
