<svg width="302" height="252" viewBox="0 0 302 252" fill="none" xmlns="http://www.w3.org/2000/svg">
<path d="M14.033 240.129C18.222 247.895 27.1127 251.228 27.1127 251.228C27.1127 251.228 29.2115 241.972 25.0225 234.206C20.8335 226.441 11.9428 223.107 11.9428 223.107C11.9428 223.107 9.84393 232.364 14.033 240.129Z" fill="#361B2B"/>
<path d="M16.9122 237.575C24.4751 242.123 27.3879 251.157 27.3879 251.157C27.3879 251.157 18.0386 252.817 10.4757 248.268C2.91273 243.72 0 234.686 0 234.686C0 234.686 9.34923 233.026 16.9122 237.575Z" fill="#7A3C60"/>
<path d="M122.034 236.574H42.2241V236H121.459V208.164H48.9335L45.4103 200.827L45.928 200.579L49.2948 207.59H122.034V236.574Z" fill="#361B2B"/>
<path d="M52.8462 250.635C56.1758 250.635 58.875 247.937 58.875 244.609C58.875 241.28 56.1758 238.582 52.8462 238.582C49.5166 238.582 46.8174 241.28 46.8174 244.609C46.8174 247.937 49.5166 250.635 52.8462 250.635Z" fill="#7A3C60"/>
<path d="M112.273 250.635C115.603 250.635 118.302 247.937 118.302 244.609C118.302 241.28 115.603 238.582 112.273 238.582C108.943 238.582 106.244 241.28 106.244 244.609C106.244 247.937 108.943 250.635 112.273 250.635Z" fill="#7A3C60"/>
<path d="M182.321 120.353C184.383 120.353 186.054 118.683 186.054 116.623C186.054 114.563 184.383 112.892 182.321 112.892C180.26 112.892 178.589 114.563 178.589 116.623C178.589 118.683 180.26 120.353 182.321 120.353Z" fill="#7A3C60"/>
<path d="M130.569 198.694H40.863L21.4526 135.275H150.559L150.442 135.649L130.569 198.694ZM41.2877 198.12H130.148L149.776 135.849H22.2287L41.2877 198.12Z" fill="#361B2B"/>
<path d="M123.567 195.394H44.7749L27.7261 139.149H141.125L141.022 139.481L123.567 195.394Z" fill="#DED5DA"/>
<path d="M152.168 129.61L151.613 129.463L155.402 115.188H177.441V115.762H155.843L152.168 129.61Z" fill="#361B2B"/>
<path d="M144.108 154.502H27.7256V155.076H144.108V154.502Z" fill="#361B2B"/>
<path d="M137.443 175.647H34.1973V176.221H137.443V175.647Z" fill="#361B2B"/>
<path d="M86.2915 135.562H85.7173V198.407H86.2915V135.562Z" fill="#361B2B"/>
<path d="M111.998 135.544L107.876 198.388L108.45 198.425L112.571 135.582L111.998 135.544Z" fill="#361B2B"/>
<path d="M60.0228 135.544L59.4497 135.581L63.5474 198.426L64.1204 198.389L60.0228 135.544Z" fill="#361B2B"/>
<path d="M302 250.999H0V251.673H302V250.999Z" fill="#361B2B"/>
<path d="M200.685 20.8468C200.685 20.8468 205.612 34.8644 202.58 37.021C199.548 39.1775 212.814 56.7894 212.814 56.7894L228.732 52.4763L220.015 37.7398C220.015 37.7398 218.878 23.0033 218.878 20.8468C218.878 18.6902 200.685 20.8468 200.685 20.8468Z" fill="#FFB6B6"/>
<path opacity="0.1" d="M200.685 20.8468C200.685 20.8468 205.612 34.8644 202.58 37.021C199.548 39.1775 212.814 56.7894 212.814 56.7894L228.732 52.4763L220.015 37.7398C220.015 37.7398 218.878 23.0033 218.878 20.8468C218.878 18.6902 200.685 20.8468 200.685 20.8468Z" fill="black"/>
<path d="M192.415 120.767C192.415 120.767 190.977 138.738 192.415 148.084C193.853 157.429 196.011 183.307 196.011 183.307C196.011 183.307 196.011 232.189 203.922 232.908C211.832 233.627 217.586 234.346 218.305 231.47C219.024 228.595 214.709 227.157 216.866 225.72C219.024 224.282 219.743 219.25 216.866 213.499C213.99 207.748 216.866 149.521 216.866 149.521L230.53 186.183C230.53 186.183 231.969 216.375 233.407 220.688C234.845 225.001 231.969 232.908 237.003 233.627C242.037 234.346 247.79 230.033 250.667 228.595C253.543 227.157 246.352 227.157 247.79 226.438C249.228 225.72 253.543 223.563 252.105 222.844C250.667 222.125 249.228 187.62 249.228 187.62C249.228 187.62 245.273 113.938 240.239 111.063C235.205 108.187 231.969 113.14 231.969 113.14L192.415 120.767Z" fill="#361B2B"/>
<path d="M205.36 230.033V235.784C205.36 235.784 198.887 251.416 205.36 251.416C211.832 251.416 216.866 253.036 216.866 250.879V231.47L205.36 230.033Z" fill="#361B2B"/>
<path d="M247.79 230.023V235.773C247.79 235.773 254.263 251.406 247.79 251.406C241.318 251.406 236.284 253.026 236.284 250.869V231.46L247.79 230.023Z" fill="#361B2B"/>
<path d="M210.754 31.2701C217.903 31.2701 223.699 25.4769 223.699 18.3307C223.699 11.1845 217.903 5.39139 210.754 5.39139C203.605 5.39139 197.809 11.1845 197.809 18.3307C197.809 25.4769 203.605 31.2701 210.754 31.2701Z" fill="#FFB6B6"/>
<path d="M206.799 42.4123C206.799 42.4123 210.394 53.1951 216.148 51.0385L221.901 48.8819L231.969 117.892C231.969 117.892 224.058 129.393 212.552 122.205C201.045 115.016 206.799 42.4123 206.799 42.4123Z" fill="#7A3C60"/>
<path d="M216.866 40.2557L220.102 33.4266C220.102 33.4266 239.16 42.4123 242.037 45.2877C244.913 48.1631 244.913 52.4762 244.913 52.4762L239.879 70.4475C239.879 70.4475 241.318 109.984 241.318 111.422C241.318 112.86 246.352 120.767 242.756 117.892C239.16 115.016 238.441 112.141 235.564 116.454C232.688 120.767 226.215 125.799 226.215 125.799L216.866 40.2557Z" fill="#985767"/>
<path d="M242.037 92.0131L239.879 112.141C239.879 112.141 226.935 123.643 229.811 124.361C232.688 125.08 234.126 122.205 234.126 122.205C234.126 122.205 239.16 127.237 242.037 124.361C244.913 121.486 252.105 94.1696 252.105 94.1696L242.037 92.0131Z" fill="#FFB6B6"/>
<path d="M211.029 0.043755C208.16 -0.0587907 205.089 -0.109516 202.669 1.43628C201.556 2.21205 200.579 3.16748 199.78 4.26348C197.423 7.24126 195.387 10.988 196.262 14.6826L197.279 14.2862C197.279 15.2724 197.06 16.2463 196.637 17.1374C196.78 16.7213 197.259 17.394 197.131 17.8149L196.011 21.4874C197.852 20.8128 200.142 22.1787 200.423 24.1186C200.551 19.8529 200.993 14.9615 204.455 12.4637C206.201 11.2041 208.41 10.8196 210.536 10.4781C212.497 10.1631 214.553 9.86274 216.431 10.5081C218.31 11.1534 219.909 13.0737 219.484 15.0129C220.35 14.7147 221.318 15.318 221.746 16.1276C222.174 16.9371 222.197 17.8922 222.21 18.8077C223.133 19.4599 224.184 18.1648 224.56 17.0992C225.443 14.5979 226.228 11.9352 225.752 9.32566C225.277 6.71608 223.149 4.22222 220.496 4.21337C220.818 3.85973 220.99 3.39472 220.975 2.91669L218.788 2.73196C219.343 2.65337 219.853 2.38425 220.232 1.97069C219.354 2.9366 212.449 0.0944972 211.029 0.043755Z" fill="#361B2B"/>
<path d="M210.394 38.0991C210.394 38.0991 204.54 32.3646 202.433 32.7159C200.326 33.0672 197.449 38.0991 197.449 38.0991C197.449 38.0991 180.189 43.8499 180.909 49.6008C181.628 55.3516 189.538 83.3868 189.538 83.3868C189.538 83.3868 196.011 117.173 190.258 120.767C184.504 124.361 217.586 133.706 218.305 129.393C219.024 125.08 220.462 81.9491 218.305 75.4794C216.147 69.0098 210.394 38.0991 210.394 38.0991Z" fill="#985767"/>
<path d="M235.564 49.6009H244.457C244.457 49.6009 250.667 76.9173 251.386 79.7927C252.105 82.6681 253.543 96.3263 252.824 96.3263C252.105 96.3263 237.722 93.4509 237.722 95.6074L235.564 49.6009Z" fill="#985767"/>
<path d="M235.263 117.245H201.221C197.899 101.97 197.621 87.2107 201.221 73.1097H235.263C229.769 86.957 229.426 101.615 235.263 117.245Z" fill="#DED5DA"/>
<path d="M187.381 98.4827L197.449 102.796C197.449 102.796 216.866 105.671 216.866 97.7639C216.866 89.8565 197.449 94.1696 197.449 94.1696L190.976 92.101L187.381 98.4827Z" fill="#FFB6B6"/>
<path d="M189.538 45.2877L180.908 47.4443L174.436 85.5434C174.436 85.5434 172.278 95.6074 175.874 96.3262C179.47 97.0451 189.538 102.796 189.538 102.796C189.538 102.796 190.976 92.0131 193.853 92.0131L186.661 86.2623L190.976 61.1025L189.538 45.2877Z" fill="#985767"/>
<path d="M118.726 86.0497H118.052V92.2825H118.726V86.0497Z" fill="#DED5DA"/>
</svg>
