<svg width="20" height="20" viewBox="0 0 20 20" fill="none" xmlns="http://www.w3.org/2000/svg">
<path d="M5 8.33334V6.66667C5 3.90834 5.83333 1.66667 10 1.66667C14.1667 1.66667 15 3.90834 15 6.66667V8.33334" stroke="#361B2B" stroke-width="1.5" stroke-linecap="round" stroke-linejoin="round"/>
<path d="M10.0001 15.4167C11.1507 15.4167 12.0834 14.4839 12.0834 13.3333C12.0834 12.1827 11.1507 11.25 10.0001 11.25C8.84949 11.25 7.91675 12.1827 7.91675 13.3333C7.91675 14.4839 8.84949 15.4167 10.0001 15.4167Z" stroke="#361B2B" stroke-width="1.5" stroke-linecap="round" stroke-linejoin="round"/>
<path d="M14.1667 18.3333H5.83341C2.50008 18.3333 1.66675 17.5 1.66675 14.1667V12.5C1.66675 9.16666 2.50008 8.33333 5.83341 8.33333H14.1667C17.5001 8.33333 18.3334 9.16666 18.3334 12.5V14.1667C18.3334 17.5 17.5001 18.3333 14.1667 18.3333Z" stroke="#361B2B" stroke-width="1.5" stroke-linecap="round" stroke-linejoin="round"/>
</svg>
