<svg width="56" height="56" viewBox="0 0 56 56" fill="none" xmlns="http://www.w3.org/2000/svg">
<circle cx="28" cy="28" r="27.5" stroke="#60305F"/>
<path d="M24.682 23.4842H31.318L28 18.5241L24.682 23.4842Z" fill="#60305F"/>
<path d="M26.0761 36.3906L22.9482 24.7976H16.275L26.0761 36.3906Z" fill="#60305F"/>
<path d="M29.2292 18L32.5691 22.9897L36.171 18H29.2292Z" fill="#60305F"/>
<path d="M33.0518 24.7976L29.9239 36.3906L39.725 24.7976H33.0518Z" fill="#60305F"/>
<path d="M33.8336 23.4842H40L37.253 18.7468L33.8336 23.4842Z" fill="#60305F"/>
<path d="M18.747 18.7468L16 23.4842H22.1664L18.747 18.7468Z" fill="#60305F"/>
<path d="M23.4307 22.9897L26.7705 18H19.8287L23.4307 22.9897Z" fill="#60305F"/>
<path d="M28 38.4749L31.6903 24.7976H24.3097L28 38.4749Z" fill="#60305F"/>
</svg>
