<svg width="28" height="28" viewBox="0 0 28 28" fill="none" xmlns="http://www.w3.org/2000/svg">
<rect width="28" height="28" rx="4" fill="#F6F0F1"/>
<path d="M20.75 9.48499C18.2525 9.23749 15.74 9.10999 13.235 9.10999C11.75 9.10999 10.265 9.18499 8.78 9.33499L7.25 9.48499" stroke="#7A3C60" stroke-width="1.3" stroke-linecap="round" stroke-linejoin="round"/>
<path d="M11.375 8.7275L11.54 7.745C11.66 7.0325 11.75 6.5 13.0175 6.5H14.9825C16.25 6.5 16.3475 7.0625 16.46 7.7525L16.625 8.7275" stroke="#7A3C60" stroke-width="1.3" stroke-linecap="round" stroke-linejoin="round"/>
<path d="M19.1375 11.855L18.65 19.4075C18.5675 20.585 18.5 21.5 16.4075 21.5H11.5925C9.50005 21.5 9.43255 20.585 9.35005 19.4075L8.86255 11.855" stroke="#7A3C60" stroke-width="1.3" stroke-linecap="round" stroke-linejoin="round"/>
<path d="M12.7476 17.375H15.2451" stroke="#7A3C60" stroke-width="1.3" stroke-linecap="round" stroke-linejoin="round"/>
<path d="M12.125 14.375H15.875" stroke="#7A3C60" stroke-width="1.3" stroke-linecap="round" stroke-linejoin="round"/>
</svg>
