<svg width="20" height="20" viewBox="0 0 20 20" fill="none" xmlns="http://www.w3.org/2000/svg">
<path d="M14.1333 5.14166C15.8 6.3 16.95 8.14166 17.1833 10.2667" stroke="#361B2B" stroke-width="1.5" stroke-linecap="round" stroke-linejoin="round"/>
<path d="M2.9082 10.3083C3.12487 8.19165 4.2582 6.34999 5.9082 5.18332" stroke="#361B2B" stroke-width="1.5" stroke-linecap="round" stroke-linejoin="round"/>
<path d="M6.8252 17.45C7.79186 17.9417 8.89186 18.2167 10.0502 18.2167C11.1669 18.2167 12.2169 17.9667 13.1585 17.5083" stroke="#361B2B" stroke-width="1.5" stroke-linecap="round" stroke-linejoin="round"/>
<path d="M10.0501 6.41666C11.3295 6.41666 12.3667 5.37945 12.3667 4.09999C12.3667 2.82053 11.3295 1.78333 10.0501 1.78333C8.77061 1.78333 7.7334 2.82053 7.7334 4.09999C7.7334 5.37945 8.77061 6.41666 10.0501 6.41666Z" stroke="#361B2B" stroke-width="1.5" stroke-linecap="round" stroke-linejoin="round"/>
<path d="M4.02516 16.6C5.30462 16.6 6.34183 15.5628 6.34183 14.2833C6.34183 13.0039 5.30462 11.9667 4.02516 11.9667C2.7457 11.9667 1.7085 13.0039 1.7085 14.2833C1.7085 15.5628 2.7457 16.6 4.02516 16.6Z" stroke="#361B2B" stroke-width="1.5" stroke-linecap="round" stroke-linejoin="round"/>
<path d="M15.9749 16.6C17.2543 16.6 18.2915 15.5628 18.2915 14.2833C18.2915 13.0039 17.2543 11.9667 15.9749 11.9667C14.6954 11.9667 13.6582 13.0039 13.6582 14.2833C13.6582 15.5628 14.6954 16.6 15.9749 16.6Z" stroke="#361B2B" stroke-width="1.5" stroke-linecap="round" stroke-linejoin="round"/>
</svg>
