<svg width="302" height="233" viewBox="0 0 302 233" fill="none" xmlns="http://www.w3.org/2000/svg">
<g clip-path="url(#clip0_160_480)">
<path d="M70.4076 122.762C55.492 108.034 49.1923 92.6702 52.6686 79.4996C57.1298 62.598 76.9486 50.912 107.043 47.438L107.154 48.4075C77.4787 51.8329 57.9622 63.2567 53.6091 79.7493C50.2259 92.5668 56.4341 107.595 71.0902 122.066L70.4076 122.762Z" fill="#DED5DA"/>
<path d="M214.319 175.039C195.703 175.039 175.474 172.264 155.381 166.929C130.533 160.331 107.75 150.372 89.4946 138.129L90.0352 137.318C108.202 149.502 130.884 159.415 155.63 165.985C177.991 171.923 200.521 174.675 220.775 173.949L220.81 174.923C218.671 175.001 216.507 175.039 214.319 175.039Z" fill="#DED5DA"/>
<path d="M257.025 168.903L256.714 167.979C273.363 162.333 283.776 153.238 286.828 141.676C290.707 126.978 282.28 109.923 263.097 93.6507C243.816 77.296 216.013 63.7257 184.808 55.4401L185.057 54.4968C216.398 62.8189 244.337 76.4594 263.725 92.9058C283.211 109.435 291.75 126.844 287.769 141.926C284.629 153.819 273.998 163.147 257.025 168.903Z" fill="#DED5DA"/>
<path d="M104.147 175.447C67.5688 159.175 39.3822 138.065 24.7803 116.004L25.5906 115.464C40.0916 137.372 68.1302 158.357 104.542 174.555L104.147 175.447Z" fill="#DED5DA"/>
<path d="M232.755 203.636C228.982 203.636 225.144 203.551 221.243 203.382L221.285 202.407C250.402 203.672 276.094 200.177 295.586 192.298L295.949 193.204C278.946 200.075 257.274 203.636 232.755 203.636Z" fill="#DED5DA"/>
<path d="M211.531 48.3129C205.486 46.3386 199.267 44.5003 193.048 42.8491C157.262 33.347 122.084 29.9732 91.3156 33.0945L91.2178 32.1235C122.101 28.992 157.399 32.3739 193.297 41.9058C199.533 43.5618 205.77 45.4053 211.833 47.3853L211.531 48.3129Z" fill="#DED5DA"/>
<path d="M47.5473 124.225C32.6316 109.498 26.332 94.1337 29.8082 80.9631C34.2694 64.0615 54.0882 52.3755 84.1829 48.9015L84.2941 49.871C54.6183 53.2964 35.1019 64.7202 30.7487 81.2128C27.3656 94.0303 33.5738 109.059 48.2298 123.53L47.5473 124.225Z" fill="#DED5DA"/>
<path d="M191.458 176.502C172.842 176.502 152.613 173.728 132.52 168.392C107.672 161.794 84.8887 151.836 66.6338 139.592L67.1744 138.781C85.3414 150.965 108.023 160.879 132.769 167.449C155.131 173.387 177.66 176.138 197.914 175.412L197.949 176.387C195.81 176.464 193.646 176.503 191.458 176.502Z" fill="#DED5DA"/>
<path d="M234.165 170.367L233.853 169.442C250.502 163.796 260.915 154.701 263.967 143.14C267.847 128.442 259.419 111.386 240.236 95.1142C220.955 78.7595 193.152 65.1892 161.947 56.9036L162.196 55.9603C193.537 64.2824 221.476 77.9229 240.864 94.3693C260.35 110.898 268.889 128.307 264.908 143.389C261.769 155.282 251.138 164.611 234.165 170.367Z" fill="#DED5DA"/>
<path d="M81.2866 176.91C44.7079 160.639 16.5213 139.528 1.91943 117.468L2.72978 116.928C17.2308 138.836 45.2694 159.821 81.6808 176.018L81.2866 176.91Z" fill="#DED5DA"/>
<path d="M209.894 205.099C206.121 205.099 202.284 205.015 198.382 204.846L198.424 203.871C227.541 205.135 253.233 201.64 272.725 193.762L273.089 194.667C256.085 201.539 234.413 205.099 209.894 205.099Z" fill="#DED5DA"/>
<path d="M188.671 49.7764C182.625 47.8021 176.406 45.9638 170.187 44.3126C134.401 34.8105 99.2232 31.4367 68.4548 34.558L68.3569 33.587C99.2401 30.4555 134.539 33.8374 170.436 43.3693C176.673 45.0253 182.909 46.8688 188.972 48.8488L188.671 49.7764Z" fill="#DED5DA"/>
<path d="M92.0296 122.225C90.0308 122.227 88.1145 123.024 86.7011 124.442C85.2877 125.859 84.4927 127.782 84.4904 129.786C81.624 150.954 80.6668 172.338 81.6302 193.679C81.6875 195.041 81.7509 196.287 81.8245 197.49C81.9314 199.476 82.0672 201.572 82.228 203.721C82.3204 204.99 82.4178 206.262 82.5244 207.529C82.703 209.594 82.8992 211.692 83.108 213.765C83.2391 215.032 83.3751 216.304 83.5207 217.571C83.8003 220.061 84.1166 222.612 84.4883 225.372C84.4846 227.382 85.2769 229.311 86.6911 230.736C88.1053 232.16 90.0256 232.962 92.0296 232.967H218.493C220.492 232.964 222.408 232.167 223.822 230.749C225.235 229.332 226.03 227.41 226.032 225.405L226.038 225.353C226.601 222.779 227.126 220.155 227.598 217.556C227.85 216.185 228.068 214.94 228.263 213.75C228.618 211.583 228.934 209.486 229.201 207.517C229.383 206.195 229.549 204.915 229.692 203.71C229.927 201.739 230.14 199.702 230.343 197.482C230.453 196.275 230.555 195.029 230.654 193.672V193.672C232.2 172.282 230.645 150.781 226.038 129.839L226.032 129.786C226.03 127.782 225.235 125.859 223.822 124.442C222.408 123.024 220.492 122.227 218.493 122.225L92.0296 122.225Z" fill="#7A3C60"/>
<path d="M160.171 154.597C132.769 154.597 103.734 152.099 65.7325 147.103H65.7284C63.7584 147.1 61.8586 146.368 60.3934 145.048C58.9282 143.727 58.0007 141.91 57.7886 139.945C57.754 139.65 57.7372 139.353 57.7385 139.055V116.127C57.7376 116.077 57.7398 116.028 57.7451 115.98C57.7879 113.873 58.6508 111.867 60.1494 110.39C61.6479 108.913 63.6631 108.083 65.764 108.077C131.878 99.0608 172.04 99.0617 244.788 108.079H244.792C246.891 108.093 248.902 108.93 250.395 110.411C251.887 111.892 252.743 113.9 252.779 116.006C252.783 116.046 252.785 116.086 252.784 116.127V139.055C252.785 139.354 252.768 139.652 252.734 139.948C252.518 141.917 251.585 143.738 250.113 145.059C248.641 146.38 246.734 147.109 244.758 147.105C213.328 152.099 187.566 154.597 160.171 154.597Z" fill="#FFB6B6"/>
<path d="M164.566 170.522H147.941C145.825 170.519 143.796 169.675 142.3 168.174C140.804 166.674 139.962 164.639 139.959 162.517V101.934C139.962 99.8121 140.804 97.7773 142.3 96.2766C143.796 94.7758 145.825 93.9316 147.941 93.9292H164.566C166.683 93.9316 168.711 94.7757 170.208 96.2765C171.704 97.7772 172.546 99.812 172.548 101.934V162.517C172.546 164.639 171.704 166.674 170.208 168.174C168.711 169.675 166.683 170.519 164.566 170.522Z" fill="#7A3C60"/>
<path d="M202.313 82.3368C202.192 81.201 201.98 80.0769 201.679 78.9755C201.353 77.872 200.941 76.796 200.447 75.7578C198.673 71.9405 195.682 68.825 191.945 66.9039C187.308 64.6142 182.003 64.4268 177.017 65.53C172.825 66.4717 168.889 68.3198 165.484 70.9454C163.718 72.2797 162.105 73.8056 160.674 75.4954C159.197 77.2733 156.449 82.158 156.251 82.6103C154.697 79.0721 152.467 75.8733 149.688 73.1943C146.457 70.1186 142.601 67.781 138.384 66.3422C136.142 65.5846 133.814 65.1101 131.455 64.9297C128.959 64.7215 126.446 64.9415 124.023 65.58C119.671 66.8024 115.908 69.562 113.426 73.3498C111.061 76.8702 109.899 81.0655 110.116 85.3048C110.236 87.4452 110.696 89.5526 111.479 91.5472C111.899 92.627 112.397 93.6745 112.969 94.6815C113.561 95.6761 114.222 96.6272 114.949 97.5275C117.801 101.037 121.641 103.602 125.969 104.888C130.59 106.32 135.492 106.367 140.243 105.695C145.123 105.004 149.819 103.42 154.415 101.685C155.028 101.453 155.639 101.215 156.25 100.979C160.335 102.556 164.456 104.076 168.732 105.041C173.544 106.206 178.537 106.407 183.426 105.632C187.983 104.882 192.219 102.806 195.611 99.6623C198.748 96.7007 200.944 92.876 201.923 88.6677C202.406 86.5943 202.538 84.4541 202.313 82.3368ZM138.974 100.982C136.337 101.32 133.669 101.336 131.028 101.028C129.135 100.753 127.28 100.258 125.502 99.5529C121.309 97.8017 117.967 94.4734 116.191 90.2809C115.66 88.9592 115.282 87.5808 115.064 86.1728C114.924 84.92 114.924 83.6556 115.063 82.4028C115.27 81.0848 115.624 79.7944 116.119 78.556C116.655 77.3516 117.32 76.2094 118.103 75.1498C118.862 74.2016 119.72 73.3374 120.662 72.5718C121.555 71.9094 122.516 71.3446 123.529 70.8871C124.737 70.4137 125.995 70.0763 127.277 69.8813C129.015 69.6884 130.77 69.7021 132.504 69.9223C134.568 70.2419 136.588 70.8004 138.524 71.5866C140.583 72.4829 142.529 73.6208 144.321 74.9764C145.979 76.2939 147.482 77.7968 148.8 79.4558C150.106 81.1975 151.201 83.0885 152.062 85.0891C152.899 87.1764 153.487 89.3556 153.813 91.5813L153.817 91.6139C153.69 92.7322 153.626 93.8568 153.626 94.9824C153.627 95.416 153.646 95.849 153.668 96.2819C153.462 96.4803 153.291 96.7115 153.161 96.966C149.773 98.2992 146.3 99.4039 142.765 100.273C141.512 100.563 140.249 100.799 138.974 100.982ZM197.447 86.1726C197.229 87.5809 196.851 88.9594 196.32 90.2813C194.552 94.4795 191.207 97.8105 187.009 99.5529C185.23 100.258 183.376 100.753 181.483 101.028C178.837 101.337 176.164 101.32 173.522 100.98C168.829 100.307 164.302 98.8211 159.875 97.1631C159.692 97.0948 159.511 97.0229 159.329 96.9541C159.206 96.7033 159.042 96.4747 158.844 96.2774C158.922 94.7066 158.874 93.1321 158.699 91.5691C159.026 89.3476 159.613 87.1726 160.449 85.0891C161.31 83.0886 162.405 81.1977 163.71 79.456C165.029 77.7969 166.532 76.294 168.19 74.9764C169.982 73.6208 171.928 72.4829 173.987 71.5866C175.922 70.8004 177.943 70.2419 180.007 69.9223C181.741 69.7022 183.495 69.6884 185.233 69.8813C186.516 70.0763 187.773 70.4137 188.982 70.8871C189.995 71.3446 190.956 71.9095 191.849 72.572C192.791 73.3375 193.648 74.2018 194.408 75.1499C195.19 76.2095 195.856 77.3517 196.391 78.556C196.887 79.7944 197.241 81.0848 197.448 82.4028C197.587 83.6556 197.586 84.92 197.447 86.1726Z" fill="#7A3C60"/>
<path d="M105.649 173.205C107.261 173.205 108.567 171.894 108.567 170.278C108.567 168.661 107.261 167.351 105.649 167.351C104.037 167.351 102.73 168.661 102.73 170.278C102.73 171.894 104.037 173.205 105.649 173.205Z" fill="#FFB6B6"/>
<path d="M126.564 165.887C128.176 165.887 129.482 164.577 129.482 162.96C129.482 161.343 128.176 160.033 126.564 160.033C124.952 160.033 123.646 161.343 123.646 162.96C123.646 164.577 124.952 165.887 126.564 165.887Z" fill="#FFB6B6"/>
<path d="M117.322 188.816C118.934 188.816 120.241 187.506 120.241 185.889C120.241 184.272 118.934 182.962 117.322 182.962C115.71 182.962 114.404 184.272 114.404 185.889C114.404 187.506 115.71 188.816 117.322 188.816Z" fill="#FFB6B6"/>
<path d="M203.901 173.205C205.513 173.205 206.82 171.894 206.82 170.278C206.82 168.661 205.513 167.351 203.901 167.351C202.29 167.351 200.983 168.661 200.983 170.278C200.983 171.894 202.29 173.205 203.901 173.205Z" fill="#FFB6B6"/>
<path d="M182.986 165.887C184.598 165.887 185.905 164.577 185.905 162.96C185.905 161.343 184.598 160.033 182.986 160.033C181.374 160.033 180.068 161.343 180.068 162.96C180.068 164.577 181.374 165.887 182.986 165.887Z" fill="#FFB6B6"/>
<path d="M192.227 188.816C193.839 188.816 195.146 187.506 195.146 185.889C195.146 184.272 193.839 182.962 192.227 182.962C190.616 182.962 189.309 184.272 189.309 185.889C189.309 187.506 190.616 188.816 192.227 188.816Z" fill="#FFB6B6"/>
<path d="M206.333 224.429C207.945 224.429 209.251 223.119 209.251 221.502C209.251 219.886 207.945 218.575 206.333 218.575C204.721 218.575 203.415 219.886 203.415 221.502C203.415 223.119 204.721 224.429 206.333 224.429Z" fill="#FFB6B6"/>
<path d="M213.629 203.452C215.241 203.452 216.547 202.141 216.547 200.525C216.547 198.908 215.241 197.598 213.629 197.598C212.017 197.598 210.71 198.908 210.71 200.525C210.71 202.141 212.017 203.452 213.629 203.452Z" fill="#FFB6B6"/>
<path d="M190.768 212.721C192.38 212.721 193.687 211.41 193.687 209.794C193.687 208.177 192.38 206.867 190.768 206.867C189.157 206.867 187.85 208.177 187.85 209.794C187.85 211.41 189.157 212.721 190.768 212.721Z" fill="#FFB6B6"/>
<path d="M122.673 224.429C124.285 224.429 125.591 223.119 125.591 221.502C125.591 219.886 124.285 218.575 122.673 218.575C121.061 218.575 119.754 219.886 119.754 221.502C119.754 223.119 121.061 224.429 122.673 224.429Z" fill="#FFB6B6"/>
<path d="M129.969 203.452C131.58 203.452 132.887 202.141 132.887 200.525C132.887 198.908 131.58 197.598 129.969 197.598C128.357 197.598 127.05 198.908 127.05 200.525C127.05 202.141 128.357 203.452 129.969 203.452Z" fill="#FFB6B6"/>
<path d="M107.108 212.721C108.72 212.721 110.026 211.41 110.026 209.794C110.026 208.177 108.72 206.867 107.108 206.867C105.496 206.867 104.189 208.177 104.189 209.794C104.189 211.41 105.496 212.721 107.108 212.721Z" fill="#FFB6B6"/>
<path d="M190.96 17.6976C192.065 18.1602 193.27 18.3297 194.46 18.1895C195.649 18.0494 196.782 17.6044 197.75 16.8974C200.218 15.0512 201.144 11.8284 201.919 8.84029L204.208 0L200.341 2.35449C197.561 4.04739 194.716 5.79638 192.709 8.36647C190.702 10.9366 189.687 14.5381 191.009 17.5206" fill="#DED5DA"/>
<path d="M87.5483 93.2111C88.2946 92.2718 88.7872 91.1556 88.9785 89.97C89.1699 88.7843 89.0536 87.5692 88.6409 86.4417C87.5465 83.5552 84.7095 81.7801 82.0565 80.2141L74.2065 75.5846L75.4053 79.9592C76.267 83.1052 77.165 86.3281 79.0798 88.9682C80.9945 91.6083 84.1699 93.5742 87.3921 93.115" fill="#DED5DA"/>
<path d="M271.893 229.321C272.639 228.382 273.132 227.266 273.323 226.08C273.515 224.895 273.398 223.679 272.986 222.552C271.891 219.665 269.054 217.89 266.401 216.324L258.551 211.695L259.75 216.069C260.612 219.215 261.51 222.438 263.425 225.078C265.339 227.718 268.515 229.684 271.737 229.225" fill="#DED5DA"/>
<path d="M123.646 56.6087C125.795 56.6087 127.537 54.8614 127.537 52.7059C127.537 50.5504 125.795 48.8031 123.646 48.8031C121.497 48.8031 119.754 50.5504 119.754 52.7059C119.754 54.8614 121.497 56.6087 123.646 56.6087Z" fill="#361B2B"/>
<path d="M20.0426 171.741C22.1916 171.741 23.9337 169.994 23.9337 167.839C23.9337 165.683 22.1916 163.936 20.0426 163.936C17.8935 163.936 16.1514 165.683 16.1514 167.839C16.1514 169.994 17.8935 171.741 20.0426 171.741Z" fill="#361B2B"/>
<path d="M287.562 140.031C289.711 140.031 291.453 138.284 291.453 136.128C291.453 133.973 289.711 132.225 287.562 132.225C285.413 132.225 283.67 133.973 283.67 136.128C283.67 138.284 285.413 140.031 287.562 140.031Z" fill="#361B2B"/>
<path d="M16.1514 73.6834C18.3005 73.6834 20.0426 71.9361 20.0426 69.7806C20.0426 67.6252 18.3005 65.8778 16.1514 65.8778C14.0024 65.8778 12.2603 67.6252 12.2603 69.7806C12.2603 71.9361 14.0024 73.6834 16.1514 73.6834Z" fill="#DADADA"/>
<path d="M256.919 184.913C259.068 184.913 260.81 183.166 260.81 181.011C260.81 178.855 259.068 177.108 256.919 177.108C254.769 177.108 253.027 178.855 253.027 181.011C253.027 183.166 254.769 184.913 256.919 184.913Z" fill="#DADADA"/>
<path d="M264.701 66.3657C266.85 66.3657 268.592 64.6183 268.592 62.4629C268.592 60.3074 266.85 58.5601 264.701 58.5601C262.552 58.5601 260.81 60.3074 260.81 62.4629C260.81 64.6183 262.552 66.3657 264.701 66.3657Z" fill="#DADADA"/>
<path d="M94.0857 128.438C93.7494 128.972 92.9338 128.894 92.4758 128.56C91.8401 128.097 92.0459 127.205 92.4837 126.678C93.8751 125.003 96.1763 126.771 96.4867 128.435C96.6021 129.246 96.4776 130.074 96.1285 130.815C95.7795 131.556 95.2213 132.177 94.5231 132.603C92.9356 133.547 90.8736 133.073 89.5086 131.944C86.6614 129.588 87.4366 124.872 90.5992 123.168C92.6175 122.08 95.1691 122.557 97.1573 123.468C99.3954 124.494 101.32 126.066 103.39 127.376C107.931 130.228 113.068 131.987 118.4 132.517C119.333 132.612 119.326 131.148 118.4 131.053C115.445 130.747 112.545 130.047 109.775 128.971C107.035 127.856 104.434 126.425 102.025 124.704C99.5881 123.029 97.0422 121.401 94.0263 121.124C92.8092 120.982 91.5763 121.165 90.4527 121.655C89.3291 122.146 88.3551 122.926 87.6295 123.916C86.9842 124.802 86.5522 125.826 86.3674 126.908C86.1826 127.99 86.2501 129.1 86.5645 130.151C86.9435 131.25 87.6061 132.229 88.4849 132.988C89.3636 133.746 90.4271 134.258 91.5672 134.471C92.6646 134.679 93.7995 134.538 94.8134 134.068C95.8273 133.598 96.6697 132.823 97.2232 131.85C98.3332 129.924 98.2971 127.338 96.6205 125.741C96.1399 125.251 95.5382 124.898 94.877 124.718C94.2157 124.537 93.5186 124.536 92.8568 124.714C92.247 124.921 91.7105 125.301 91.3128 125.809C90.9152 126.317 90.6737 126.929 90.6178 127.573C90.456 130.072 93.9935 131.322 95.3457 129.177C95.8489 128.378 94.5867 127.643 94.0857 128.438Z" fill="#7A3C60"/>
<path d="M218.869 128.438C219.205 128.972 220.021 128.894 220.479 128.56C221.115 128.097 220.909 127.205 220.471 126.678C219.08 125.003 216.778 126.771 216.468 128.435C216.353 129.246 216.477 130.074 216.826 130.815C217.175 131.556 217.733 132.177 218.432 132.603C220.019 133.547 222.081 133.073 223.446 131.944C226.293 129.588 225.518 124.872 222.355 123.168C220.337 122.08 217.786 122.557 215.797 123.468C213.559 124.494 211.635 126.066 209.565 127.376C205.024 130.228 199.886 131.987 194.555 132.517C193.622 132.612 193.628 131.148 194.555 131.053C197.509 130.747 200.41 130.047 203.18 128.971C205.92 127.856 208.521 126.425 210.93 124.704C213.367 123.029 215.913 121.401 218.928 121.124C220.145 120.982 221.378 121.165 222.502 121.655C223.626 122.146 224.6 122.926 225.325 123.916C225.971 124.802 226.403 125.826 226.587 126.908C226.772 127.99 226.705 129.1 226.39 130.151C226.011 131.25 225.349 132.229 224.47 132.988C223.591 133.746 222.528 134.258 221.388 134.471C220.29 134.679 219.155 134.538 218.141 134.068C217.127 133.598 216.285 132.823 215.731 131.85C214.621 129.924 214.658 127.338 216.334 125.741C216.815 125.251 217.416 124.898 218.078 124.718C218.739 124.537 219.436 124.536 220.098 124.714C220.708 124.921 221.244 125.301 221.642 125.809C222.04 126.317 222.281 126.929 222.337 127.573C222.499 130.072 218.961 131.322 217.609 129.177C217.106 128.378 218.368 127.643 218.869 128.438Z" fill="#7A3C60"/>
<path d="M43.306 17.7396L41.3785 20.165L34.562 16.1207L36.4891 13.6953L43.306 17.7396Z" fill="#DED5DA"/>
<path d="M50.4188 28.1602L52.121 30.7082L44.96 34.2807L43.2578 31.7331L50.4188 28.1602Z" fill="#DED5DA"/>
<path d="M57.8313 17.0829L61.233 17.2038L60.8944 24.3428L57.4922 24.2224L57.8313 17.0829Z" fill="#DED5DA"/>
<path d="M284.073 167.022L282.146 169.447L275.329 165.403L277.257 162.978L284.073 167.022Z" fill="#DED5DA"/>
<path d="M291.185 177.443L292.888 179.991L285.727 183.563L284.024 181.015L291.185 177.443Z" fill="#DED5DA"/>
<path d="M298.598 166.365L302 166.486L301.661 173.625L298.259 173.505L298.598 166.365Z" fill="#DED5DA"/>
</g>
<defs>
<clipPath id="clip0_160_480">
<rect width="302" height="233" fill="white"/>
</clipPath>
</defs>
</svg>
