<svg width="302" height="238" viewBox="0 0 302 238" fill="none" xmlns="http://www.w3.org/2000/svg">
<g clip-path="url(#clip0_136_2727)">
<path d="M159.589 33.7391C159.657 34.0395 159.702 34.3448 159.722 34.6521L183.623 48.4476L189.433 45.1014L195.626 53.2134L185.917 60.137C185.133 60.6964 184.188 60.986 183.225 60.9626C182.262 60.9391 181.333 60.6037 180.577 60.0069L155.93 40.5535C154.818 40.9655 153.607 41.0288 152.457 40.7352C151.308 40.4416 150.276 39.8049 149.497 38.9098C148.718 38.0147 148.23 36.9036 148.098 35.7244C147.966 34.5451 148.196 33.3536 148.757 32.3083C149.319 31.2629 150.185 30.4133 151.24 29.8724C152.296 29.3315 153.491 29.125 154.667 29.2803C155.843 29.4357 156.944 29.9455 157.823 30.742C158.702 31.5385 159.318 32.5838 159.589 33.7391Z" fill="#FFB6B6"/>
<path d="M183.955 46.9244C184.031 46.5725 184.182 46.2412 184.397 45.9529C184.613 45.6646 184.888 45.4263 185.204 45.2541L196.239 39.2387C197.708 38.1291 199.557 37.6478 201.381 37.9004C203.205 38.153 204.854 39.1189 205.967 40.5862C207.08 42.0535 207.566 43.9025 207.318 45.7277C207.07 47.5529 206.109 49.2054 204.645 50.3226L195.801 59.3117C195.549 59.5682 195.244 59.7673 194.908 59.8954C194.572 60.0234 194.212 60.0775 193.853 60.0539C193.494 60.0302 193.144 59.9295 192.827 59.7584C192.511 59.5874 192.235 59.3501 192.018 59.0627L184.403 48.9618C184.187 48.6745 184.034 48.3437 183.957 47.9921C183.88 47.6405 183.879 47.2763 183.955 46.9244Z" fill="#361B2B"/>
<path d="M203.669 11.9534C205.257 6.89103 208.867 2.24798 213.86 0.536611C218.854 -1.17475 226.165 1.43221 229.919 5.17533C236.786 12.0222 238.462 35.5439 233.744 42.977C232.806 42.9273 229.568 42.8905 228.618 42.8549L227.275 38.3748V42.8108C219.862 42.5815 212.144 42.7251 204.422 42.8735C203.73 37.6108 202.081 17.0158 203.669 11.9534Z" fill="#361B2B"/>
<path d="M201.544 224.447H194.783L191.567 198.354L201.546 198.354L201.544 224.447Z" fill="#FFB6B6"/>
<path d="M260.734 220.24L254.191 221.946L244.5 197.509L254.156 194.991L260.734 220.24Z" fill="#FFB6B6"/>
<path d="M223.473 64.1893L225.005 68.1745L224.698 72.1597L194.715 82.55L196.203 65.109L199.573 61.1233L223.473 64.1893Z" fill="#FFB6B6"/>
<path d="M213.993 28.3259C219.907 28.3259 224.702 23.5289 224.702 17.6116C224.702 11.6943 219.907 6.89734 213.993 6.89734C208.078 6.89734 203.284 11.6943 203.284 17.6116C203.284 23.5289 208.078 28.3259 213.993 28.3259Z" fill="#FFB7B7"/>
<path d="M206.634 3.65972C208.692 2.40467 211.049 1.72576 213.459 1.69398C215.868 1.6622 218.242 2.2787 220.332 3.47904C222.422 4.67938 224.152 6.41946 225.339 8.51734C226.527 10.6152 227.13 12.9938 227.084 15.4045C221.247 16.8972 215.026 17.5216 208.434 15.764L206.927 12.0742L206.039 15.7667C204.022 17.1861 202.075 17.1836 200.199 15.7591C200.119 13.3552 200.672 10.9726 201.801 8.84932C202.93 6.72606 204.597 4.93657 206.634 3.65972Z" fill="#361B2B"/>
<path d="M204.569 237.291H199.771L198.915 232.759L196.722 237.291H183.997C183.387 237.291 182.793 237.096 182.302 236.735C181.81 236.373 181.447 235.864 181.266 235.281C181.084 234.699 181.094 234.073 181.293 233.496C181.492 232.919 181.869 232.421 182.371 232.074L192.533 225.053V220.471L203.221 221.11L204.569 237.291Z" fill="#361B2B"/>
<path d="M267.492 231.751L262.849 232.962L260.878 228.793L259.898 233.732L247.585 236.943C246.994 237.097 246.37 237.058 245.804 236.832C245.237 236.606 244.758 236.205 244.435 235.687C244.113 235.169 243.964 234.562 244.011 233.953C244.058 233.345 244.298 232.767 244.696 232.305L252.759 222.946L251.604 218.513L262.108 216.433L267.492 231.751Z" fill="#361B2B"/>
<path d="M259.904 203.831L240.085 163.077L233.863 113.474C238.153 105.503 230.186 89.2851 230.186 89.2851V82.4756L199.326 88.3004C193.014 105.525 189.953 123.772 190.299 142.114L191.542 208.05H191.152C190.505 208.05 189.884 208.307 189.426 208.765C188.969 209.223 188.711 209.844 188.711 210.492C188.711 211.14 188.969 211.761 189.426 212.219C189.884 212.677 190.505 212.934 191.152 212.934H203.356C204.003 212.934 204.624 212.677 205.081 212.219C205.539 211.761 205.796 211.14 205.796 210.492C205.796 209.844 205.539 209.223 205.081 208.765C204.624 208.307 204.003 208.05 203.356 208.05H203.041L211.802 124.168L221.988 165.561L246.605 203.674C245.977 203.723 245.392 204.014 244.974 204.485C244.556 204.956 244.336 205.571 244.361 206.201C244.387 206.83 244.655 207.425 245.11 207.861C245.564 208.297 246.17 208.54 246.8 208.538H259.004C259.571 208.539 260.121 208.342 260.559 207.98C260.996 207.618 261.294 207.115 261.401 206.557C261.507 206 261.416 205.422 261.143 204.924C260.87 204.427 260.431 204.04 259.904 203.831Z" fill="#361B2B"/>
<path d="M232.976 93.4598C232.875 93.0614 232.65 92.7052 232.334 92.4425C232.018 92.1798 231.627 92.0239 231.216 91.9972C230.81 87.3443 228.122 57.5035 228.02 56.6281L228.016 56.5911L227.237 39.9579C227.209 39.3539 226.959 38.7814 226.536 38.3498C226.113 37.9183 225.545 37.6579 224.942 37.6184L220.831 37.3496C220.775 37.3477 220.722 37.324 220.682 37.2834C220.643 37.2428 220.621 37.1886 220.621 37.1321C220.621 36.678 220.532 36.2283 220.358 35.8087C220.184 35.3891 219.93 35.0078 219.609 34.6867C219.288 34.3655 218.907 34.1108 218.487 33.937C218.068 33.7632 217.619 33.6737 217.165 33.6737H204.995C204.206 33.674 203.445 33.9622 202.854 34.4841C202.263 35.0059 201.883 35.7257 201.785 36.5082C201.779 36.5621 201.754 36.6119 201.713 36.6478C201.673 36.6836 201.62 36.7029 201.566 36.7016L201.565 36.7016C200.182 36.6731 198.835 37.1415 197.767 38.0218C196.7 38.9022 195.984 40.136 195.748 41.4996C194.085 51.1847 190.75 73.1661 192.399 85.3866C192.973 89.6407 192.712 96.0389 192.495 99.5983C192.473 99.9423 192.52 100.287 192.632 100.613C192.743 100.939 192.919 101.24 193.147 101.498C192.661 101.638 192.249 101.961 191.997 102.399C191.746 102.837 191.673 103.356 191.796 103.846C191.923 104.348 192.244 104.78 192.688 105.045C193.133 105.311 193.665 105.389 194.167 105.263L231.56 95.8316C232.062 95.705 232.494 95.3839 232.759 94.9392C233.025 94.4944 233.103 93.9622 232.976 93.4598Z" fill="#985767"/>
<path d="M171.175 163.388C171.168 162.295 170.775 161.241 170.065 160.411C169.355 159.581 168.374 159.03 167.297 158.855L101 147.963C100.364 147.857 99.7138 147.886 99.0899 148.048L83.5529 152.067L74.6382 154.376L58.1867 158.631C57.1935 158.889 56.3141 159.469 55.6862 160.281C55.0584 161.093 54.7176 162.091 54.7173 163.117V232.621C54.7222 233.68 55.0882 234.707 55.7547 235.53C56.4213 236.354 57.3486 236.925 58.3835 237.15L125.911 236.385C126.228 236.453 126.552 236.487 126.876 236.485C127.348 236.486 127.818 236.414 128.269 236.273L168.389 237.272C169.336 236.976 170.162 236.383 170.745 235.58C171.328 234.778 171.638 233.808 171.627 232.816L171.175 163.388Z" fill="white"/>
<path d="M171.175 163.388C171.168 162.295 170.775 161.241 170.065 160.411C169.355 159.581 168.374 159.03 167.297 158.855L101 147.963C100.364 147.857 99.7138 147.886 99.0899 148.048L83.5529 152.067L74.6382 154.376L58.1867 158.631C57.1935 158.889 56.3141 159.469 55.6862 160.281C55.0584 161.093 54.7176 162.091 54.7173 163.117V232.621C54.7222 233.68 55.0882 234.707 55.7547 235.53C56.4213 236.354 57.3486 236.925 58.3835 237.15L125.911 236.385C126.228 236.453 126.552 236.487 126.876 236.485C127.348 236.486 127.818 236.414 128.269 236.273L168.389 237.272C169.336 236.976 170.162 236.383 170.745 235.58C171.328 234.778 171.638 233.808 171.627 232.816L171.175 163.388ZM168.041 236.167L127.922 237.122C127.349 237.301 126.741 237.33 126.154 237.207L58.6228 236.019C57.8468 235.849 57.1517 235.421 56.6522 234.803C56.1527 234.185 55.8785 233.415 55.875 232.621V163.117C55.8755 162.406 56.0941 161.712 56.5012 161.128C56.9084 160.545 57.4845 160.1 58.1519 159.855C58.2579 159.815 58.3662 159.781 58.4761 159.754L75.8809 155.252L86.1733 152.588L99.3793 149.171C99.6625 149.096 99.9545 149.058 100.248 149.059C100.436 149.059 100.625 149.075 100.811 149.106L167.108 159.998C167.641 160.085 168.147 160.296 168.585 160.613C169.023 160.93 169.381 161.344 169.631 161.824C169.882 162.31 170.014 162.848 170.017 163.395L170.469 232.824C170.477 233.568 170.246 234.295 169.808 234.898C169.371 235.5 168.752 235.945 168.041 236.167Z" fill="#AB929F"/>
<path d="M169.632 161.824C169.586 161.853 169.537 161.876 169.485 161.889L149.985 167.164L143.914 168.805L126.648 173.473C126.599 173.485 126.548 173.491 126.498 173.492C126.463 173.491 126.428 173.489 126.394 173.484L56.7743 160.785L56.5427 160.743C56.3919 160.714 56.2585 160.627 56.1715 160.501C56.0846 160.374 56.0512 160.219 56.0788 160.068C56.1063 159.917 56.1925 159.783 56.3185 159.695C56.4445 159.607 56.6 159.573 56.7511 159.6L58.152 159.855L126.475 172.318L141.355 168.295L149.68 166.044L168.879 160.851L169.184 160.77C169.316 160.735 169.455 160.748 169.579 160.806C169.702 160.863 169.802 160.963 169.859 161.086C169.874 161.116 169.886 161.147 169.894 161.179C169.926 161.3 169.917 161.429 169.87 161.545C169.823 161.661 169.739 161.759 169.632 161.824Z" fill="#AB929F"/>
<path d="M127.077 236.62C126.759 236.62 126.501 236.365 126.498 238L125.919 174.872C125.916 172.598 126.173 172.337 126.493 172.334H126.498C126.815 172.334 127.074 172.589 127.077 174.861L127.656 237.989C127.659 236.356 127.402 236.617 127.082 236.62H127.077Z" fill="#AB929F"/>
<path d="M150.149 237.353L143.914 237.419L141.355 168.295L76.0699 155.299C76.006 155.287 75.9428 155.272 75.8808 155.252C75.3794 155.109 74.9412 154.8 74.6382 154.376L83.5528 152.067L86.1732 152.588L148.12 164.917C148.446 164.981 148.754 165.115 149.023 165.31C149.292 165.504 149.516 165.755 149.68 166.044C149.872 166.38 150.145 236.951 150.149 237.353Z" fill="#AB929F"/>
<path d="M200.087 36.8676C200.081 36.0444 199.785 35.2497 199.25 34.6244C198.715 33.999 197.976 33.5835 197.164 33.4514L147.199 25.2426C146.72 25.1632 146.23 25.185 145.759 25.3066L134.05 28.3358L127.331 30.0759L114.933 33.2826C114.184 33.4771 113.521 33.9146 113.048 34.5265C112.575 35.1385 112.318 35.8902 112.318 36.6639V77.6353C112.322 78.4339 112.597 79.2073 113.1 79.8279C113.602 80.4484 114.301 80.879 115.081 81.0486L165.973 91.8823C166.212 91.9336 166.456 91.959 166.7 91.9579C167.056 91.9585 167.411 91.9046 167.75 91.7979L197.987 82.2446C198.7 82.0218 199.323 81.5748 199.763 80.9699C200.202 80.365 200.435 79.6344 200.427 78.8866L200.087 36.8676Z" fill="white"/>
<path d="M146.633 28.2513C146.597 28.2512 146.56 28.2559 146.525 28.2652L115.698 36.2413C115.605 36.2655 115.522 36.3201 115.463 36.3965C115.404 36.4729 115.372 36.5667 115.372 36.6633V77.6341C115.372 77.7339 115.406 77.8305 115.469 77.9081C115.532 77.9856 115.619 78.0395 115.717 78.0606L166.609 88.8941C166.683 88.9096 166.759 88.9058 166.831 88.8832L197.068 79.3303C197.157 79.3025 197.235 79.2467 197.29 79.1711C197.344 79.0955 197.373 79.0042 197.372 78.9109L197.033 36.892C197.033 36.7892 196.996 36.69 196.929 36.612C196.862 36.5339 196.769 36.482 196.668 36.4655L146.704 28.257C146.68 28.2532 146.657 28.2513 146.633 28.2513Z" fill="#7A3C60"/>
<path d="M200.087 36.8676C200.081 36.0444 199.785 35.2497 199.25 34.6244C198.715 33.999 197.976 33.5835 197.164 33.4514L147.199 25.2426C146.72 25.1632 146.23 25.185 145.759 25.3066L134.05 28.3358L127.331 30.0759L114.933 33.2826C114.184 33.4771 113.521 33.9146 113.048 34.5265C112.575 35.1385 112.318 35.8902 112.318 36.6639V77.6353C112.322 78.4339 112.597 79.2073 113.1 79.8279C113.602 80.4484 114.301 80.879 115.081 81.0486L165.973 91.8823C166.212 91.9336 166.456 91.959 166.7 91.9579C167.056 91.9585 167.411 91.9046 167.75 91.7979L197.987 82.2446C198.7 82.0218 199.323 81.5748 199.763 80.9699C200.202 80.365 200.435 79.6344 200.427 78.8866L200.087 36.8676ZM197.725 81.4124L167.489 90.9656C167.057 91.1 166.599 91.1221 166.157 91.0296L115.261 80.1961C114.676 80.0685 114.153 79.7453 113.776 79.2797C113.4 78.8142 113.193 78.2342 113.19 77.6353V36.664C113.191 36.1277 113.356 35.6045 113.662 35.1648C113.969 34.7251 114.403 34.3902 114.906 34.2051C114.986 34.1751 115.068 34.1498 115.151 34.1294L128.268 30.7365L136.025 28.7287L145.978 26.1534C146.191 26.0964 146.411 26.068 146.632 26.069C146.774 26.0689 146.916 26.0806 147.057 26.1039L197.021 34.3128C197.423 34.3788 197.804 34.5375 198.135 34.7764C198.465 35.0153 198.735 35.3278 198.923 35.6891C199.112 36.0555 199.212 36.4613 199.214 36.8735L199.554 78.8925C199.561 79.4534 199.386 80.0015 199.057 80.4554C198.727 80.9093 198.26 81.2449 197.725 81.4124Z" fill="#361B2B"/>
<path d="M198.923 35.6891C198.889 35.7114 198.852 35.7281 198.813 35.7386L184.116 39.7135L179.541 40.9502L166.529 44.4683C166.492 44.4774 166.454 44.4823 166.415 44.4828C166.389 44.4823 166.363 44.4804 166.337 44.477L113.868 34.9063L113.694 34.8743C113.58 34.853 113.479 34.7876 113.414 34.6922C113.348 34.5968 113.323 34.4793 113.344 34.3654C113.364 34.2515 113.429 34.1505 113.524 34.0845C113.619 34.0184 113.737 33.9927 113.851 34.013L114.906 34.205L166.398 43.5982L177.613 40.5661L183.887 38.8696L198.356 34.9558L198.586 34.8947C198.685 34.8685 198.791 34.878 198.884 34.9216C198.977 34.9652 199.051 35.0401 199.095 35.1333C199.106 35.1555 199.115 35.179 199.121 35.2031C199.145 35.2946 199.139 35.3914 199.103 35.4791C199.067 35.5667 199.004 35.6404 198.923 35.6891Z" fill="#361B2B"/>
<path d="M166.852 92.0597C166.737 92.0597 166.626 92.0143 166.544 91.9333C166.463 91.8523 166.416 91.7423 166.415 91.6272L165.979 44.0503C165.978 43.9346 166.023 43.8232 166.104 43.7406C166.185 43.658 166.296 43.6109 166.411 43.6099H166.415C166.53 43.6099 166.641 43.6553 166.722 43.7363C166.804 43.8173 166.851 43.9273 166.852 44.0424L167.288 91.6193C167.289 91.735 167.244 91.8465 167.163 91.9291C167.082 92.0117 166.971 92.0587 166.856 92.0597H166.852Z" fill="#361B2B"/>
<path d="M184.116 86.272L179.541 87.5087L177.613 40.5661L128.41 30.7714C128.362 30.7628 128.314 30.7512 128.268 30.7365C127.89 30.6288 127.559 30.3959 127.331 30.0759L134.05 28.3358L136.024 28.7286L182.711 38.02C182.957 38.0685 183.189 38.1695 183.392 38.3162C183.594 38.4628 183.763 38.6516 183.886 38.8697C184.032 39.1228 184.113 85.9693 184.116 86.272Z" fill="#361B2B"/>
<path d="M182.067 59.5072C182.301 59.7074 182.518 59.9258 182.718 60.1603L210.125 56.9579L212.791 50.8041L222.599 53.6149L218.939 64.9678C218.643 65.8849 218.058 66.6814 217.271 67.2375C216.484 67.7936 215.539 68.0795 214.576 68.0521L183.196 67.1596C182.549 68.1543 181.615 68.9284 180.518 69.379C179.42 69.8295 178.212 69.9352 177.053 69.682C175.895 69.4287 174.841 68.8285 174.031 67.9612C173.222 67.0938 172.695 66.0005 172.522 64.8266C172.349 63.6527 172.537 62.4539 173.061 61.3895C173.586 60.3252 174.422 59.4458 175.458 58.8683C176.494 58.2909 177.681 58.0427 178.862 58.1568C180.042 58.2709 181.16 58.742 182.067 59.5072Z" fill="#FFB6B6"/>
<path d="M209.483 55.5376C209.334 55.21 209.257 54.854 209.258 54.494C209.259 54.1341 209.338 53.7785 209.489 53.4517L214.755 42.0362C215.272 40.2685 216.469 38.7782 218.083 37.8921C219.696 37.006 221.596 36.7963 223.364 37.3091C225.132 37.8219 226.625 39.0153 227.515 40.6277C228.405 42.24 228.619 44.1396 228.112 45.91L226.377 58.4035C226.328 58.7601 226.202 59.1017 226.009 59.4053C225.815 59.7088 225.559 59.9671 225.257 60.1625C224.954 60.358 224.614 60.4859 224.258 60.5377C223.902 60.5895 223.539 60.5639 223.193 60.4627L211.058 56.9047C210.713 56.8036 210.393 56.6291 210.121 56.3932C209.85 56.1573 209.632 55.8654 209.483 55.5376Z" fill="#985767"/>
<path d="M301.419 237.861H0.580997C0.427139 237.861 0.279732 237.799 0.171095 237.69C0.0624588 237.581 0.00146484 237.434 0.00146484 237.28C0.00146484 237.126 0.0624588 236.978 0.171095 236.869C0.279732 236.76 0.427139 236.699 0.580997 236.698H301.419C301.573 236.698 301.721 236.76 301.83 236.869C301.939 236.978 302 237.126 302 237.28C302 237.434 301.939 237.582 301.83 237.691C301.721 237.8 301.573 237.861 301.419 237.861Z" fill="#AB929F"/>
<path d="M133.064 65.6874C133.01 65.6874 132.956 65.6813 132.903 65.6693L117.77 62.2506C117.581 62.2077 117.417 62.0913 117.313 61.9271C117.21 61.7629 117.175 61.5643 117.218 61.375C117.261 61.1856 117.377 61.0209 117.541 60.9171C117.705 60.8133 117.903 60.7788 118.093 60.8213L133.225 64.2399C133.401 64.2797 133.556 64.3827 133.66 64.5295C133.765 64.6763 133.811 64.8564 133.791 65.0355C133.772 65.2146 133.686 65.3801 133.552 65.5004C133.418 65.6206 133.244 65.6872 133.064 65.6874Z" fill="white"/>
<path d="M74.8262 203.282C74.773 203.293 74.7187 203.298 74.6643 203.297L59.1532 203.036C58.9593 203.032 58.7747 202.952 58.64 202.812C58.5053 202.672 58.4315 202.485 58.4347 202.291C58.4379 202.097 58.5179 201.912 58.6572 201.777C58.7965 201.642 58.9836 201.568 59.1775 201.571L74.6886 201.832C74.8687 201.835 75.0413 201.904 75.1736 202.027C75.3058 202.149 75.3882 202.316 75.4053 202.495C75.4223 202.675 75.3727 202.854 75.2658 202.999C75.159 203.144 75.0025 203.245 74.8262 203.282Z" fill="#AB929F"/>
<path d="M80.1958 211.584C80.1426 211.595 80.0883 211.6 80.0339 211.599L64.5228 211.338C64.3289 211.334 64.1443 211.254 64.0096 211.114C63.8749 210.975 63.8011 210.787 63.8043 210.593C63.8075 210.399 63.8875 210.215 64.0268 210.079C64.1661 209.944 64.3532 209.87 64.5471 209.873L80.0583 210.134C80.2383 210.137 80.411 210.207 80.5432 210.329C80.6754 210.452 80.7579 210.618 80.7749 210.798C80.7919 210.977 80.7423 211.156 80.6355 211.302C80.5286 211.447 80.3721 211.547 80.1958 211.584Z" fill="#AB929F"/>
</g>
<defs>
<clipPath id="clip0_136_2727">
<rect width="302" height="238" fill="white"/>
</clipPath>
</defs>
</svg>
