<svg width="236" height="245" viewBox="0 0 236 245" fill="none" xmlns="http://www.w3.org/2000/svg">
<g clip-path="url(#clip0_136_2889)">
<path d="M219.418 0L217.217 2.12414L193.274 25.2453L152.682 64.4422L154.594 232.225L0.20166 194.135V83.0858L58.4436 15.8073L219.418 0Z" fill="#373E46"/>
<path d="M219.418 0L217.217 2.12414L193.274 25.2453L152.682 64.4422L154.594 232.225L0.20166 194.135V83.0858L58.4436 15.8073L219.418 0Z" fill="#361B2B"/>
<path d="M236 106.593L231.553 220.479L72.1949 244.798L0.20166 194.135V84.706L152.682 64.4423L236 106.593Z" fill="#373E46"/>
<path d="M235.798 106.593L231.348 220.479L71.9933 244.798L0 194.135V84.706L152.481 64.4423L235.798 106.593Z" fill="#3F2535"/>
<path d="M72.1949 127.261V244.798L0.20166 194.135V84.7784L72.1949 127.261Z" fill="#361B2B"/>
<path opacity="0.1" d="M217.217 2.12415L193.274 25.2453L77.8589 38.0987L57.2305 17.8319L217.217 2.12415Z" fill="black"/>
<path d="M152.682 64.4423L154.299 233.45L231.553 220.479L236 106.593L152.682 64.4423Z" fill="#361B2B"/>
<path d="M236 106.593L204.857 103.754L130.048 66.6388L152.682 64.4423L236 106.593Z" fill="#3F2535"/>
<path d="M58.4438 15.8073L79.0723 36.0711L217.395 20.6711L219.418 0L58.4438 15.8073Z" fill="#3F2535"/>
<path d="M104.753 78.4241C104.757 79.3847 104.656 80.3429 104.452 81.2815C104.074 82.9799 103.357 84.5841 102.344 85.9974C102.002 86.4704 101.63 86.9209 101.23 87.3461C99.1415 89.5642 96.3355 90.968 93.3111 91.3077C92.8174 91.365 92.3207 91.3932 91.8237 91.3922C90.2021 91.3917 88.5952 91.0846 87.0873 90.487C86.6555 90.3184 86.2334 90.126 85.8227 89.9108C82.8958 88.3727 80.6653 85.7728 79.5869 82.6422C79.4297 82.194 79.3 81.7365 79.1985 81.2724C79.1172 80.9164 79.054 80.5543 79.0028 80.1892C78.9231 79.6012 78.8829 79.0085 78.8823 78.4151C78.8805 77.1308 79.0703 75.8534 79.4454 74.6254C79.5177 74.378 79.602 74.1336 79.6923 73.8892C80.5215 71.6619 81.9455 69.7058 83.8087 68.2343C85.6719 66.7629 87.9028 65.8327 90.2577 65.5453C92.6126 65.2579 95.001 65.6244 97.1622 66.6047C99.3234 67.5851 101.174 69.1416 102.513 71.1043C103.982 73.2608 104.763 75.8132 104.753 78.4241Z" fill="#EEEFF0"/>
<path d="M103.745 87.7444C113.238 87.7444 120.934 77.0388 120.934 63.8328C120.934 50.6267 113.238 39.9211 103.745 39.9211C94.2508 39.9211 86.5547 50.6267 86.5547 63.8328C86.5547 77.0388 94.2508 87.7444 103.745 87.7444Z" fill="#7A3C60"/>
<path opacity="0.22" d="M103.745 87.7444C113.238 87.7444 120.934 77.0388 120.934 63.8328C120.934 50.6267 113.238 39.9211 103.745 39.9211C94.2508 39.9211 86.5547 50.6267 86.5547 63.8328C86.5547 77.0388 94.2508 87.7444 103.745 87.7444Z" fill="black"/>
<path d="M133.056 6.28192C126.168 6.28196 119.423 8.26285 113.625 11.9894C107.826 15.716 103.216 21.0317 100.342 27.3055C97.468 33.5793 96.4511 40.5477 97.4118 47.3834C98.3725 54.2191 101.27 60.635 105.762 65.8694C106.457 66.6841 107.192 67.4656 107.96 68.2018C112.047 72.1999 117.028 75.1624 122.488 76.8431C123.391 77.1237 124.325 77.3712 125.261 77.5733C130.049 78.6316 135.002 78.7035 139.819 77.7845C140.777 77.6065 141.728 77.3862 142.659 77.1237C148.319 75.5564 153.508 72.6201 157.771 68.5729C158.604 67.7864 159.398 66.9607 160.153 66.0957C164.705 60.8803 167.662 54.4612 168.669 47.6063C169.677 40.7513 168.693 33.7506 165.835 27.4413C162.977 21.132 158.365 15.7812 152.552 12.0288C146.74 8.27642 139.971 6.28125 133.056 6.28192ZM133.056 13.1733C132.577 13.1733 132.107 13.0307 131.708 12.7635C131.309 12.4962 130.998 12.1164 130.814 11.6721C130.631 11.2277 130.583 10.7387 130.676 10.267C130.77 9.79522 131.001 9.3619 131.34 9.02179C131.68 8.68169 132.112 8.45007 132.583 8.35624C133.054 8.2624 133.542 8.31056 133.985 8.49463C134.429 8.67869 134.808 8.99039 135.074 9.39031C135.341 9.79024 135.483 10.2604 135.483 10.7414C135.483 11.3864 135.228 12.0049 134.773 12.461C134.317 12.9171 133.7 13.1733 133.056 13.1733Z" fill="#7A3C60"/>
<path d="M165.422 87.7474C172.124 87.7474 177.556 79.4004 177.556 69.1039C177.556 58.8073 172.124 50.4603 165.422 50.4603C158.72 50.4603 153.288 58.8073 153.288 69.1039C153.288 79.4004 158.72 87.7474 165.422 87.7474Z" fill="#FFCCC3"/>
<path opacity="0.1" d="M165.422 79.0457C168.995 79.0457 171.892 74.5946 171.892 69.1039C171.892 63.6131 168.995 59.162 165.422 59.162C161.848 59.162 158.951 63.6131 158.951 69.1039C158.951 74.5946 161.848 79.0457 165.422 79.0457Z" fill="#3F2535"/>
<path d="M133.066 178.126C156.297 178.126 175.13 157.259 175.13 131.519C175.13 105.778 156.297 84.9112 133.066 84.9112C109.835 84.9112 91.002 105.778 91.002 131.519C91.002 157.259 109.835 178.126 133.066 178.126Z" fill="#FFCCC3"/>
<path opacity="0.1" d="M133.066 178.126C156.297 178.126 175.13 157.259 175.13 131.519C175.13 105.778 156.297 84.9112 133.066 84.9112C109.835 84.9112 91.002 105.778 91.002 131.519C91.002 157.259 109.835 178.126 133.066 178.126Z" fill="#3F2535"/>
<path d="M100.709 87.7474C107.411 87.7474 112.843 79.4004 112.843 69.1039C112.843 58.8073 107.411 50.4603 100.709 50.4603C94.0074 50.4603 88.5747 58.8073 88.5747 69.1039C88.5747 79.4004 94.0074 87.7474 100.709 87.7474Z" fill="#FFCCC3"/>
<path opacity="0.1" d="M100.709 79.0457C104.283 79.0457 107.18 74.5946 107.18 69.1039C107.18 63.6131 104.283 59.162 100.709 59.162C97.1358 59.162 94.2388 63.6131 94.2388 69.1039C94.2388 74.5946 97.1358 79.0457 100.709 79.0457Z" fill="#3F2535"/>
<path opacity="0.1" d="M105.542 65.7698L105.963 20.4659L103.347 63.4375L105.542 65.7698Z" fill="black"/>
<path opacity="0.1" d="M123.355 20.4659L122.846 75.1293C121.91 74.9271 120.983 74.6797 120.073 74.3991L123.355 20.4659Z" fill="black"/>
<path opacity="0.1" d="M140.747 20.4659L140.244 74.6918C139.313 74.9543 138.362 75.1746 137.404 75.3526L140.747 20.4659Z" fill="black"/>
<path opacity="0.1" d="M157.738 63.6638L158.138 20.4659L155.356 66.1409L157.738 63.6638Z" fill="black"/>
<path opacity="0.1" d="M165.449 41.5414H100.682C98.6865 41.5414 97.0688 43.1624 97.0688 45.1621V61.428C97.0688 63.4277 98.6865 65.0487 100.682 65.0487H165.449C167.444 65.0487 169.062 63.4277 169.062 61.428V45.1621C169.062 43.1624 167.444 41.5414 165.449 41.5414Z" fill="black"/>
<path d="M166.232 75.5879C166.223 83.9971 163.028 92.0892 157.294 98.229C151.56 104.369 143.713 108.099 135.341 108.665C126.968 109.231 118.693 106.591 112.187 101.279C105.682 95.9664 101.432 88.3777 100.295 80.0461C99.1584 71.7144 101.22 63.2609 106.064 56.3939C110.907 49.5268 118.172 44.7581 126.389 43.0514C134.606 41.3447 143.163 42.8273 150.332 47.1995C157.5 51.5717 162.745 58.5076 165.007 66.6056C165.823 69.5296 166.235 72.5518 166.232 75.5879Z" fill="#FFCCC3"/>
<path opacity="0.1" d="M165.007 66.6056C164.744 66.6492 164.478 66.6714 164.212 66.672H101.926C101.659 66.6714 101.392 66.6492 101.128 66.6056C102.748 60.8371 105.892 55.6139 110.229 51.4879C114.566 47.3619 119.934 44.4863 125.767 43.1647H140.367C146.2 44.4863 151.569 47.3619 155.906 51.4879C160.243 55.6139 163.387 60.8371 165.007 66.6056Z" fill="black"/>
<path d="M164.208 42.353H101.923C99.2419 42.353 97.0688 44.5306 97.0688 47.2168V60.9966C97.0688 63.6828 99.2419 65.8604 101.923 65.8604H164.208C166.889 65.8604 169.062 63.6828 169.062 60.9966V47.2168C169.062 44.5306 166.889 42.353 164.208 42.353Z" fill="#7A3C60"/>
<path opacity="0.1" d="M105.024 63.4284L105.963 48.0284L105.822 63.4284H105.024Z" fill="black"/>
<path opacity="0.1" d="M123.213 63.4284L123.355 48.0284L122.416 63.4284H123.213Z" fill="black"/>
<path opacity="0.1" d="M140.747 48.0284L140.602 63.4284H139.807L140.747 48.0284Z" fill="black"/>
<path opacity="0.1" d="M157.199 63.4284L158.138 48.0284L157.997 63.4284H157.199Z" fill="black"/>
<path opacity="0.1" d="M120.528 75.9953C122.986 75.9953 124.978 73.9987 124.978 71.5358C124.978 69.0729 122.986 67.0763 120.528 67.0763C118.07 67.0763 116.078 69.0729 116.078 71.5358C116.078 73.9987 118.07 75.9953 120.528 75.9953Z" fill="black"/>
<path d="M120.528 75.5879C122.986 75.5879 124.978 73.5913 124.978 71.1284C124.978 68.6655 122.986 66.6689 120.528 66.6689C118.07 66.6689 116.078 68.6655 116.078 71.1284C116.078 73.5913 118.07 75.5879 120.528 75.5879Z" fill="#EEEFF0"/>
<path d="M120.528 73.156C121.645 73.156 122.551 72.2482 122.551 71.1284C122.551 70.0086 121.645 69.1008 120.528 69.1008C119.41 69.1008 118.504 70.0086 118.504 71.1284C118.504 72.2482 119.41 73.156 120.528 73.156Z" fill="#373E46"/>
<path d="M120.931 70.7241C121.154 70.7241 121.335 70.5431 121.335 70.3198C121.335 70.0965 121.154 69.9155 120.931 69.9155C120.708 69.9155 120.528 70.0965 120.528 70.3198C120.528 70.5431 120.708 70.7241 120.931 70.7241Z" fill="white"/>
<path opacity="0.1" d="M147.223 75.9953C149.681 75.9953 151.673 73.9987 151.673 71.5358C151.673 69.0729 149.681 67.0763 147.223 67.0763C144.765 67.0763 142.773 69.0729 142.773 71.5358C142.773 73.9987 144.765 75.9953 147.223 75.9953Z" fill="black"/>
<path d="M147.223 75.5879C149.681 75.5879 151.673 73.5913 151.673 71.1284C151.673 68.6655 149.681 66.6689 147.223 66.6689C144.765 66.6689 142.773 68.6655 142.773 71.1284C142.773 73.5913 144.765 75.5879 147.223 75.5879Z" fill="#EEEFF0"/>
<path d="M147.224 73.156C148.341 73.156 149.247 72.2482 149.247 71.1284C149.247 70.0086 148.341 69.1008 147.224 69.1008C146.106 69.1008 145.2 70.0086 145.2 71.1284C145.2 72.2482 146.106 73.156 147.224 73.156Z" fill="#373E46"/>
<path d="M146.413 70.7241C146.636 70.7241 146.817 70.5431 146.817 70.3198C146.817 70.0965 146.636 69.9155 146.413 69.9155C146.19 69.9155 146.01 70.0965 146.01 70.3198C146.01 70.5431 146.19 70.7241 146.413 70.7241Z" fill="white"/>
<path opacity="0.1" d="M133.876 98.2836C141.247 98.2836 147.223 92.2953 147.223 84.9082C147.223 77.5212 141.247 71.5328 133.876 71.5328C126.504 71.5328 120.528 77.5212 120.528 84.9082C120.528 92.2953 126.504 98.2836 133.876 98.2836Z" fill="black"/>
<path d="M133.876 97.475C141.247 97.475 147.223 91.4866 147.223 84.0996C147.223 76.7125 141.247 70.7241 133.876 70.7241C126.504 70.7241 120.528 76.7125 120.528 84.0996C120.528 91.4866 126.504 97.475 133.876 97.475Z" fill="#7A3C60"/>
<path d="M235.798 107.2L233.958 146.798L233.215 162.798L230.541 220.277L71.1831 245V127.059L235.798 107.2Z" fill="#3F2535"/>
<path d="M0.20166 84.706L30.911 80.6237L95.6537 115.509L72.1949 127.261L0.20166 84.706Z" fill="#373E46"/>
<path d="M0.20166 84.706L30.911 80.6237L95.6537 115.509L72.1949 127.261L0.20166 84.706Z" fill="#361B2B"/>
<path opacity="0.1" d="M72.7821 94.9194L68.7052 92.7319C68.5382 92.644 68.3479 92.6107 68.161 92.6367C67.9742 92.6627 67.8002 92.7466 67.6633 92.8767L64.3302 96.0841C64.1925 96.2114 64.0188 96.2926 63.833 96.3167C63.6472 96.3407 63.4586 96.3062 63.2932 96.218C63.1279 96.1299 62.9939 95.9924 62.91 95.8246C62.826 95.6568 62.7962 95.467 62.8247 95.2815L63.6406 90.7224C63.6724 90.5364 63.6454 90.3451 63.5634 90.1752C63.4813 90.0053 63.3483 89.8654 63.183 89.775L59.1061 87.5875C58.9446 87.4945 58.8158 87.3538 58.7372 87.1847C58.6586 87.0155 58.6341 86.8261 58.6671 86.6425C58.7001 86.4588 58.7889 86.2899 58.9213 86.1587C59.0538 86.0276 59.2235 85.9407 59.4072 85.9099L63.9869 85.2793C64.1736 85.2523 64.3472 85.1673 64.4833 85.0363C64.6194 84.9054 64.7111 84.735 64.7457 84.5491L65.5586 79.9901C65.5967 79.8071 65.6902 79.6405 65.8265 79.513C65.9629 79.3854 66.1352 79.3033 66.3199 79.2778C66.5047 79.2524 66.6928 79.2849 66.8583 79.3708C67.0239 79.4567 67.1589 79.5919 67.2448 79.7578L69.2592 83.9276C69.343 84.0967 69.4774 84.2353 69.6437 84.324C69.81 84.4127 69.9998 84.4471 70.1866 84.4224L74.7633 83.7918C74.9484 83.7716 75.1352 83.8091 75.2981 83.8994C75.4611 83.9896 75.5922 84.1281 75.6736 84.2958C75.755 84.4636 75.7827 84.6525 75.7529 84.8366C75.7231 85.0208 75.6372 85.1912 75.507 85.3246L72.1708 88.5319C72.0359 88.664 71.9456 88.8352 71.9127 89.0213C71.8797 89.2075 71.9058 89.3993 71.9872 89.5698L74.0015 93.7396C74.0759 93.9091 74.0967 94.0973 74.061 94.2789C74.0254 94.4605 73.935 94.6269 73.8021 94.7554C73.6692 94.884 73.5002 94.9686 73.3178 94.998C73.1354 95.0273 72.9484 94.9999 72.7821 94.9194Z" fill="black"/>
<path d="M72.177 94.0746L68.5638 92.1375C68.416 92.0583 68.2471 92.0279 68.0811 92.0507C67.9151 92.0734 67.7605 92.1482 67.6394 92.2642L64.6826 95.1095C64.562 95.2255 64.4078 95.3002 64.2422 95.323C64.0766 95.3459 63.9081 95.3156 63.7607 95.2366C63.6133 95.1575 63.4946 95.0338 63.4217 94.883C63.3488 94.7323 63.3254 94.5623 63.3547 94.3974L64.0774 90.3543C64.1073 90.1889 64.0841 90.0183 64.011 89.867C63.938 89.7157 63.8189 89.5916 63.6709 89.5125L60.0577 87.5754C59.9095 87.4967 59.7901 87.3729 59.7167 87.2219C59.6433 87.0708 59.6196 86.9003 59.649 86.7349C59.6785 86.5695 59.7596 86.4177 59.8807 86.3014C60.0017 86.1852 60.1565 86.1104 60.3227 86.0879L64.3845 85.5267C64.5501 85.5039 64.7043 85.4291 64.8249 85.3131C64.9455 85.1972 65.0264 85.0459 65.056 84.881L65.7786 80.8349C65.8043 80.6655 65.8841 80.509 66.006 80.3888C66.1279 80.2685 66.2853 80.1911 66.4548 80.168C66.6242 80.1449 66.7966 80.1774 66.9461 80.2606C67.0956 80.3439 67.2142 80.4734 67.2841 80.6297L69.0727 84.3259C69.1452 84.4773 69.264 84.6016 69.4118 84.6808C69.5596 84.76 69.7287 84.79 69.8947 84.7664L73.9535 84.2082C74.1193 84.1848 74.2882 84.2146 74.436 84.2934C74.5838 84.3722 74.7028 84.4959 74.7761 84.6467C74.8493 84.7975 74.873 84.9678 74.8437 85.1329C74.8144 85.2981 74.7336 85.4497 74.6129 85.5659L71.632 88.4052C71.5132 88.5196 71.4333 88.6686 71.4035 88.831C71.3738 88.9934 71.3958 89.1611 71.4664 89.3103L73.255 93.0095C73.3332 93.16 73.3612 93.3317 73.3348 93.4994C73.3085 93.667 73.2292 93.8218 73.1086 93.941C72.988 94.0602 72.8324 94.1374 72.6647 94.1615C72.4971 94.1855 72.3261 94.1551 72.177 94.0746Z" fill="#AB929F"/>
<path opacity="0.1" d="M222.821 211.231L220.303 209.879C220.201 209.823 220.083 209.802 219.967 209.818C219.851 209.833 219.743 209.886 219.659 209.967L217.597 211.952C217.512 212.033 217.405 212.086 217.289 212.102C217.174 212.118 217.056 212.096 216.953 212.041C216.85 211.986 216.768 211.899 216.717 211.794C216.667 211.688 216.651 211.569 216.672 211.454L217.175 208.636C217.196 208.521 217.179 208.402 217.129 208.297C217.078 208.192 216.995 208.106 216.892 208.051L214.372 206.699C214.269 206.643 214.187 206.557 214.136 206.451C214.086 206.346 214.07 206.227 214.09 206.112C214.111 205.997 214.167 205.892 214.251 205.811C214.335 205.73 214.443 205.677 214.558 205.661L217.389 205.272C217.505 205.255 217.612 205.203 217.697 205.122C217.781 205.04 217.838 204.935 217.858 204.819L218.361 202.001C218.382 201.887 218.439 201.781 218.523 201.701C218.607 201.62 218.715 201.568 218.83 201.552C218.945 201.536 219.063 201.557 219.166 201.611C219.269 201.666 219.352 201.752 219.403 201.856L220.647 204.436C220.699 204.54 220.783 204.626 220.886 204.68C220.989 204.734 221.106 204.754 221.222 204.738L224.052 204.349C224.168 204.332 224.286 204.353 224.389 204.408C224.493 204.463 224.576 204.549 224.627 204.655C224.678 204.76 224.694 204.879 224.673 204.995C224.652 205.11 224.595 205.215 224.51 205.296L222.45 207.284C222.366 207.366 222.309 207.471 222.288 207.587C222.267 207.702 222.283 207.821 222.333 207.927L223.579 210.504C223.629 210.609 223.643 210.727 223.622 210.841C223.601 210.955 223.544 211.06 223.461 211.14C223.377 211.221 223.27 211.273 223.155 211.289C223.04 211.305 222.923 211.285 222.821 211.231Z" fill="black"/>
<path d="M222.451 210.709L220.214 209.502C220.123 209.453 220.018 209.434 219.916 209.449C219.814 209.463 219.719 209.509 219.644 209.581L217.817 211.34C217.742 211.411 217.647 211.457 217.544 211.471C217.442 211.485 217.338 211.466 217.247 211.417C217.156 211.368 217.082 211.292 217.037 211.199C216.992 211.106 216.977 211.001 216.995 210.899L217.44 208.398C217.459 208.296 217.445 208.191 217.4 208.098C217.355 208.004 217.282 207.928 217.19 207.879L214.956 206.681C214.871 206.629 214.803 206.553 214.762 206.462C214.721 206.371 214.709 206.269 214.727 206.171C214.745 206.073 214.792 205.982 214.863 205.912C214.933 205.841 215.024 205.794 215.122 205.776L217.63 205.429C217.733 205.416 217.828 205.37 217.903 205.298C217.978 205.226 218.028 205.133 218.046 205.031L218.494 202.529C218.513 202.427 218.563 202.334 218.638 202.262C218.713 202.19 218.808 202.144 218.911 202.13C219.013 202.116 219.117 202.135 219.209 202.184C219.3 202.233 219.373 202.309 219.419 202.403L220.521 204.69C220.566 204.783 220.64 204.859 220.731 204.908C220.822 204.957 220.927 204.976 221.029 204.961L223.541 204.614C223.643 204.6 223.748 204.619 223.839 204.668C223.93 204.717 224.004 204.794 224.049 204.887C224.094 204.981 224.108 205.086 224.09 205.188C224.072 205.29 224.022 205.384 223.947 205.456L222.119 207.215C222.045 207.287 221.994 207.38 221.976 207.482C221.958 207.584 221.972 207.689 222.017 207.782L223.122 210.069C223.166 210.162 223.179 210.267 223.161 210.368C223.142 210.469 223.092 210.562 223.017 210.632C222.943 210.703 222.848 210.749 222.746 210.763C222.645 210.776 222.541 210.758 222.451 210.709Z" fill="#7A3C60"/>
<path opacity="0.1" d="M91.372 150.841L88.8548 149.489C88.7515 149.435 88.6337 149.414 88.5181 149.43C88.4025 149.447 88.2949 149.499 88.2105 149.58L86.1479 151.562C86.0639 151.643 85.9563 151.696 85.8407 151.712C85.7251 151.728 85.6073 151.706 85.5045 151.651C85.4017 151.596 85.3191 151.509 85.2686 151.404C85.2181 151.298 85.2023 151.179 85.2236 151.064L85.7264 148.246C85.7466 148.131 85.7302 148.013 85.6794 147.908C85.6286 147.802 85.546 147.716 85.4434 147.661L82.9231 146.309C82.8201 146.254 82.737 146.168 82.6861 146.063C82.6351 145.957 82.6189 145.838 82.6396 145.723C82.6604 145.608 82.7171 145.503 82.8016 145.422C82.8862 145.341 82.9941 145.289 83.1098 145.274L85.9402 144.882C86.0557 144.866 86.1633 144.814 86.2477 144.733C86.332 144.653 86.3888 144.547 86.4099 144.432L86.9127 141.611C86.9343 141.497 86.9912 141.392 87.0756 141.311C87.1599 141.231 87.2673 141.18 87.3826 141.164C87.4979 141.148 87.6152 141.169 87.7178 141.224C87.8205 141.279 87.9033 141.365 87.9545 141.469L89.2011 144.046C89.2522 144.151 89.3352 144.236 89.438 144.291C89.5409 144.345 89.6582 144.365 89.7732 144.348L92.6035 143.956C92.7193 143.94 92.837 143.962 92.9399 144.017C93.0427 144.073 93.1254 144.159 93.1762 144.265C93.2269 144.37 93.2432 144.489 93.2225 144.604C93.2019 144.719 93.1454 144.825 93.0612 144.906L91.0017 146.888C90.9163 146.972 90.8604 147.081 90.8424 147.199C90.8245 147.317 90.8455 147.438 90.9023 147.543L92.1459 150.12C92.1964 150.226 92.2117 150.346 92.1896 150.462C92.1675 150.578 92.109 150.684 92.0228 150.765C91.9365 150.845 91.8269 150.896 91.7099 150.91C91.5928 150.923 91.4745 150.899 91.372 150.841Z" fill="black"/>
<path d="M91.0017 150.322L88.7675 149.115C88.6759 149.067 88.5715 149.048 88.4689 149.062C88.3663 149.077 88.2707 149.122 88.1954 149.193L86.3677 150.953C86.2929 151.024 86.1976 151.07 86.0953 151.084C85.9929 151.098 85.8888 151.079 85.7978 151.03C85.7067 150.981 85.6333 150.905 85.5881 150.812C85.5428 150.719 85.528 150.614 85.5457 150.512L85.9913 148.014C86.0104 147.912 85.9964 147.807 85.9515 147.713C85.9065 147.62 85.8329 147.543 85.7414 147.495L83.5073 146.288C83.4203 146.237 83.3511 146.161 83.309 146.07C83.2669 145.978 83.254 145.876 83.2722 145.777C83.2903 145.678 83.3385 145.587 83.4102 145.516C83.482 145.446 83.5737 145.399 83.6729 145.383L86.181 145.036C86.2839 145.022 86.3796 144.975 86.4544 144.903C86.5291 144.831 86.5789 144.737 86.5966 144.634L87.0452 142.136C87.0637 142.034 87.114 141.941 87.1887 141.869C87.2635 141.797 87.359 141.751 87.4615 141.737C87.5641 141.723 87.6684 141.742 87.7597 141.791C87.8509 141.84 87.9244 141.916 87.9696 142.009L89.0716 144.293C89.1166 144.387 89.1902 144.464 89.2817 144.513C89.3732 144.562 89.4779 144.58 89.5805 144.565L92.1067 144.224C92.2094 144.209 92.3142 144.227 92.4059 144.275C92.4977 144.324 92.5716 144.401 92.617 144.494C92.6623 144.588 92.6767 144.693 92.658 144.796C92.6394 144.898 92.5886 144.991 92.5132 145.063L90.6855 146.822C90.6104 146.894 90.56 146.988 90.5416 147.09C90.5232 147.193 90.5378 147.299 90.5831 147.392L91.6882 149.676C91.7359 149.771 91.7517 149.879 91.7332 149.983C91.7148 150.088 91.6631 150.184 91.5858 150.256C91.5086 150.329 91.4099 150.375 91.3046 150.386C91.1993 150.398 91.0931 150.376 91.0017 150.322Z" fill="#7A3C60"/>
<path opacity="0.1" d="M222.821 187.319L220.303 185.968C220.201 185.912 220.083 185.89 219.967 185.906C219.851 185.922 219.743 185.974 219.659 186.055L217.597 188.038C217.513 188.118 217.405 188.17 217.29 188.186C217.175 188.202 217.058 188.181 216.955 188.126C216.852 188.072 216.77 187.985 216.719 187.881C216.668 187.776 216.652 187.657 216.672 187.543L217.175 184.725C217.199 184.607 217.184 184.485 217.133 184.376C217.082 184.267 216.998 184.178 216.892 184.121L214.372 182.772C214.269 182.717 214.187 182.63 214.136 182.525C214.086 182.419 214.07 182.301 214.09 182.186C214.111 182.071 214.167 181.965 214.251 181.884C214.335 181.803 214.443 181.751 214.558 181.734L217.389 181.342C217.504 181.327 217.612 181.275 217.697 181.194C217.781 181.113 217.838 181.008 217.858 180.893L218.361 178.075C218.382 177.96 218.439 177.855 218.523 177.774C218.607 177.693 218.715 177.641 218.83 177.625C218.945 177.609 219.063 177.63 219.166 177.685C219.269 177.739 219.352 177.825 219.403 177.93L220.647 180.506C220.699 180.611 220.782 180.696 220.885 180.751C220.989 180.805 221.106 180.825 221.222 180.808L224.052 180.419C224.168 180.402 224.286 180.423 224.389 180.478C224.493 180.533 224.576 180.619 224.627 180.725C224.678 180.83 224.694 180.949 224.673 181.065C224.652 181.18 224.595 181.286 224.51 181.366L222.45 183.349C222.366 183.43 222.309 183.536 222.288 183.651C222.267 183.766 222.283 183.885 222.333 183.991L223.579 186.568C223.638 186.674 223.66 186.796 223.643 186.916C223.626 187.036 223.57 187.147 223.484 187.232C223.398 187.317 223.287 187.371 223.167 187.387C223.047 187.403 222.926 187.379 222.821 187.319Z" fill="black"/>
<path d="M222.451 186.797L220.214 185.59C220.123 185.541 220.018 185.522 219.916 185.536C219.814 185.55 219.719 185.597 219.644 185.669L217.817 187.428C217.742 187.499 217.647 187.545 217.544 187.559C217.442 187.573 217.338 187.554 217.247 187.506C217.156 187.457 217.082 187.38 217.037 187.287C216.992 187.194 216.977 187.089 216.995 186.987L217.44 184.486C217.459 184.384 217.445 184.279 217.4 184.186C217.355 184.093 217.282 184.016 217.19 183.967L214.956 182.76C214.871 182.709 214.803 182.632 214.762 182.541C214.721 182.45 214.709 182.349 214.727 182.25C214.745 182.152 214.792 182.062 214.863 181.991C214.933 181.92 215.024 181.873 215.122 181.855L217.63 181.508C217.733 181.495 217.828 181.449 217.903 181.377C217.978 181.306 218.028 181.212 218.046 181.11L218.494 178.609C218.513 178.507 218.563 178.413 218.638 178.341C218.713 178.27 218.808 178.223 218.911 178.209C219.013 178.195 219.117 178.214 219.209 178.263C219.3 178.312 219.373 178.389 219.419 178.482L220.521 180.766C220.566 180.859 220.639 180.936 220.731 180.986C220.822 181.035 220.927 181.054 221.029 181.04L223.541 180.693C223.643 180.679 223.748 180.698 223.839 180.747C223.93 180.796 224.004 180.873 224.049 180.967C224.094 181.06 224.108 181.165 224.09 181.267C224.072 181.37 224.022 181.463 223.947 181.535L222.119 183.294C222.044 183.366 221.994 183.459 221.975 183.561C221.957 183.663 221.971 183.768 222.017 183.862L223.122 186.146C223.168 186.239 223.184 186.345 223.166 186.447C223.148 186.55 223.098 186.644 223.024 186.717C222.949 186.79 222.853 186.836 222.75 186.851C222.647 186.865 222.542 186.847 222.451 186.797Z" fill="#7A3C60"/>
<path d="M111.832 140.839C116.412 140.839 120.124 134.76 120.124 127.261C120.124 119.762 116.412 113.684 111.832 113.684C107.252 113.684 103.54 119.762 103.54 127.261C103.54 134.76 107.252 140.839 111.832 140.839Z" fill="#FFCCC3"/>
<path d="M157.536 135.975C162.116 135.975 165.828 129.896 165.828 122.397C165.828 114.899 162.116 108.82 157.536 108.82C152.956 108.82 149.244 114.899 149.244 122.397C149.244 129.896 152.956 135.975 157.536 135.975Z" fill="#FFCCC3"/>
<path d="M233.958 146.798L233.215 162.798L71.1832 179.493L0.20166 147.094V131.519L71.1832 162.566L233.958 146.798Z" fill="#7A3C60"/>
<path opacity="0.1" d="M71.1832 162.566V179.493L0.20166 147.094V131.519L71.1832 162.566Z" fill="black"/>
</g>
<defs>
<clipPath id="clip0_136_2889">
<rect width="236" height="245" fill="white"/>
</clipPath>
</defs>
</svg>
